# xmcd
#
# Track frame offsets: 
#        150
#        26450
#        41612
#        55360
#        76855
#        94362
#        124415
#        151355
#        172900
#        195357
#        214505
#        236662
#
# Disc length: 3366 seconds
#
# Revision: 0
# Processed by: cddbd v1.5.1PL0 Copyright (c) Steve Scherf et al.
# Submitted via: ExactAudioCopy v0.95a5
#
DISCID=960d240c
DTITLE=Big Head Todd And The Monsters - Strategem Live Disc 1
DYEAR=1994
DGENRE=Blues
TTITLE0=Broken Hearted Savior
TTITLE1=Soul For Every Cowboy
TTITLE2=Kensington Line
TTITLE3=Poor Miss
TTITLE4=Tonight
TTITLE5=Bittersweet
TTITLE6=Sister Sweetly
TTITLE7=Strategem
TTITLE8=It's Alright
TTITLE9=Neck Breaker
TTITLE10=Magdelina
TTITLE11=Mona Lisa
EXTD=
EXTT0=
EXTT1=
EXTT2=
EXTT3=
EXTT4=
EXTT5=
EXTT6=
EXTT7=
EXTT8=
EXTT9=
EXTT10=
EXTT11=
PLAYORDER=
